<svg xmlns="http://www.w3.org/2000/svg" width="800" height="800" fill="none" stroke="#fff" viewBox="0 0 24 24"><path stroke-linecap="round" stroke-linejoin="round" stroke-width="2" d="M9 11V6a3 3 0 1 1 6 0v4.967M10.4 21h3.2c2.24 0 3.36 0 4.216-.436a4 4 0 0 0 1.748-1.748C20 17.96 20 16.84 20 14.6v-2.4c0-1.12 0-1.68-.218-2.108a2 2 0 0 0-.874-.874C18.48 9 17.92 9 16.8 9H7.2c-1.12 0-1.68 0-2.108.218a2 2 0 0 0-.874.874C4 10.52 4 11.08 4 12.2v2.4c0 2.24 0 3.36.436 4.216a4 4 0 0 0 1.748 1.748C7.04 21 8.16 21 10.4 21Z"></path></svg>